<svg width="200" height="200" viewBox="0 0 200 200" fill="none" xmlns="http://www.w3.org/2000/svg">
<path d="M122.43 5.1579C119.152 4.3364 113.555 3.0668 110.037 2.35732C101.161 0.490265 98.9625 0.452927 91.9661 1.79721C69.7375 6.05409 39.1932 15.6507 12.127 26.8904C3.01171 30.6619 0.612941 32.4169 0.093207 35.7403C-0.266609 37.9434 0.413048 45.6357 2.17215 58.5557C4.0112 72.4092 4.411 74.5377 6.52991 82.3046C11.3674 99.8923 17.9241 118.264 24.2009 131.595C26.5596 136.673 34.3956 148.884 37.6739 152.693C38.1537 153.215 38.9533 154.224 39.513 154.896C45.8697 162.924 58.8631 175.359 67.8985 182.005C69.5376 183.2 70.9769 184.283 71.0968 184.395C71.3367 184.619 72.9359 185.665 77.8933 188.876C84.8498 193.357 93.4853 198.025 98.2429 199.892L100.762 200.863L104.72 199.332C112.396 196.307 121.951 190.407 132.265 182.379C142.7 174.276 152.815 164.306 162.77 152.282C168.727 145.112 175.763 135.292 179.361 129.13C186.797 116.36 195.953 90.3703 197.192 78.3464C197.272 77.4129 197.632 74.3883 197.992 71.625C199.191 61.879 199.951 50.4527 199.991 42.2376C200.031 32.7156 200.111 32.9397 196.193 30.5125C192.035 27.8986 173.524 20.5798 157.852 15.3894C149.776 12.7008 133.385 7.77177 129.467 6.87558C128.907 6.72623 125.749 5.9794 122.43 5.1579Z" fill="white"/>
<path d="M120.931 12.4384C117.894 11.678 112.708 10.5029 109.448 9.84616C101.225 8.11803 99.1873 8.08347 92.705 9.32771C72.1096 13.2679 43.8095 22.1504 18.7321 32.5538C10.2865 36.0446 8.064 37.6691 7.58245 40.7452C7.24907 42.7843 7.87879 49.9043 9.50864 61.8629C11.2126 74.6856 11.583 76.6557 13.5462 83.8447C18.0283 100.124 24.1032 117.129 29.9188 129.467C32.1043 134.168 39.3645 145.47 42.4019 148.995C42.8464 149.479 43.5873 150.412 44.1059 151.034C49.9956 158.465 62.0342 169.975 70.4057 176.127C71.9244 177.233 73.2579 178.235 73.369 178.339C73.5913 178.546 75.073 179.514 79.6662 182.486C86.1115 186.634 94.1126 190.954 98.5206 192.682L100.854 193.581L104.521 192.164C111.633 189.364 120.487 183.904 130.043 176.473C139.711 168.972 149.083 159.744 158.306 148.615C163.826 141.979 170.345 132.889 173.679 127.186C180.569 115.366 189.051 91.3103 190.2 80.1811C190.274 79.317 190.607 76.5175 190.94 73.9598C192.052 64.939 192.755 54.3628 192.792 46.759C192.83 37.9456 192.904 38.1529 189.274 35.9064C185.421 33.487 168.271 26.7127 153.75 21.9085C146.268 19.42 131.081 14.8577 127.45 14.0282C126.932 13.89 124.005 13.1987 120.931 12.4384Z" fill="black"/>
<path d="M88.8382 28.7081C64.4107 34.3092 46.9397 39.5743 29.8684 46.4824C21.3928 49.9178 21.5527 49.6938 22.1124 57.0126C23.9515 82.1058 30.3482 105.332 40.1432 122.658C46.3 133.487 53.4164 142.598 62.5317 151.224C73.1263 161.269 82.7613 167.878 94.2354 173.069C99.9125 175.645 99.7926 175.608 103.711 173.853C120.502 166.385 139.612 151.896 143.81 143.495C144.37 142.412 144.81 141.329 144.81 141.067C144.81 140.619 137.413 135.168 125.819 127.102C121.861 124.376 114.865 119.447 110.267 116.198C103.791 111.568 101.752 110.336 101.072 110.485C100.632 110.634 98.8331 111.643 97.1539 112.763L94.0355 114.854V129.94C94.0355 144.092 93.9956 145.063 93.3559 145.063C92.2764 145.063 83.7208 140.171 79.2831 137.035C77.1642 135.504 73.9658 132.89 72.2067 131.172C69.2483 128.297 63.6511 121.874 63.6511 121.389C63.6511 121.277 62.8915 120.044 61.972 118.663C57.0945 111.232 53.0166 100.291 51.0576 89.2753C50.138 84.1596 48.8987 71.7624 49.2585 71.3889C49.4184 71.2022 49.7782 72.2104 50.0181 73.6294C50.7777 77.6622 54.3359 91.1424 55.6952 95.0259C57.4543 100.03 60.2129 106.266 62.3318 109.888C63.891 112.539 67.5291 117.356 69.1283 118.849C69.5681 119.26 69.648 114.966 69.648 93.7189V68.1029L68.6885 67.2814C68.1688 66.8333 66.8095 66.1612 65.7301 65.7878C64.3708 65.3397 63.0914 64.5182 61.972 63.3606C59.7731 61.1575 55.6552 56.3778 55.6552 56.0418C55.6552 55.8924 56.6147 55.8551 57.7741 55.9671C58.8936 56.0418 70.5276 56.1538 83.5609 56.1538C102.871 56.1911 107.229 56.2658 107.229 56.6766C107.229 57.4607 102.991 62.203 100.912 63.734C99.8726 64.5182 97.9935 65.4891 96.7542 65.9371L94.4353 66.7213V78.6331C94.4353 85.2051 94.5553 90.5449 94.7552 90.5449C94.9151 90.5449 96.1145 89.6861 97.4338 88.6405C98.7531 87.595 100.632 86.1013 101.632 85.3172C102.631 84.533 103.99 83.4875 104.63 83.0394C105.31 82.5539 106.029 81.9565 106.229 81.7324C106.469 81.5084 108.028 80.2761 109.747 79.0065C111.427 77.7369 112.826 76.542 112.826 76.3553C112.826 75.8699 108.148 71.9491 107.229 71.6877C106.789 71.5757 106.429 71.2396 106.389 71.0155C106.269 69.8206 106.549 68.6257 107.109 68.0282C107.709 67.4308 109.028 67.3934 123.58 67.3561C132.296 67.3561 142.011 67.2067 145.209 67.0574C148.408 66.908 151.046 66.8333 151.126 66.8707C151.406 67.0574 150.007 69.1111 149.127 69.8206C143.45 74.5256 142.091 75.2351 137.813 75.6832C133.895 76.0566 131.976 77.1021 122.301 83.9356C118.703 86.4747 115.105 88.9019 114.305 89.3873C113.066 90.0968 112.906 90.3582 113.226 90.9183C113.626 91.5905 116.744 93.8683 128.218 101.747C137.053 107.834 152.725 118.887 158.403 122.994C161.801 125.496 164.879 127.513 165.279 127.513C165.999 127.513 166.798 126.467 166.798 125.534C166.798 125.235 165.279 123.33 163.4 121.314C161.561 119.26 160.002 117.356 160.002 117.02C160.002 116.422 160.561 115.115 162.68 110.709C165.679 104.548 169.557 93.7936 172.235 84.3836C174.794 75.3098 178.392 56.4899 178.392 52.233C178.392 50.8887 176.553 49.2083 173.755 47.9761C153.645 39.0889 129.937 32.2181 105.03 27.9986C103.071 27.6625 100.552 27.2518 99.5127 27.0277C98.4733 26.841 97.5537 26.6917 97.5138 26.729C97.4738 26.729 93.5558 27.6252 88.8382 28.7081ZM37.9843 69.8953C40.1032 83.8609 45.5004 101.598 50.6978 111.643C53.0965 116.273 56.5747 121.911 59.2934 125.459C67.8889 136.773 79.6829 145.735 92.2764 150.477C98.8731 152.979 107.469 155.182 111.627 155.444C114.905 155.63 115.185 155.705 113.626 155.929C111.067 156.265 100.392 155.668 96.6742 154.996C84.2406 152.718 72.6465 147.079 64.4507 139.424C51.8172 127.55 43.5414 111.755 39.7034 92.2253C37.5045 80.8362 35.7454 64.0328 36.7849 64.0328C36.9848 64.0328 37.5045 66.684 37.9843 69.8953Z" fill="#4FD520"/>
</svg>
