<svg width="569" height="360" viewBox="0 0 569 360" fill="none" xmlns="http://www.w3.org/2000/svg">
<path d="M307.282 74.2849L308.116 74.5627L306.727 77.8967L304.504 81.2307L302.281 84.2869L302.003 84.8425L303.67 84.009L305.893 82.0642L309.783 79.0081L312.839 76.2297L314.506 74.8406L315.617 75.1184L315.062 76.5076L312.005 81.5085L310.616 83.7312L312.561 82.6199L318.396 78.7302L320.896 78.1746L321.452 78.4524L320.896 82.6199L318.951 85.9539L320.34 85.3982L321.452 82.8977L322.285 81.5085H322.841L323.119 82.6199L322.285 84.8425L320.618 88.4543L322.007 87.0652L325.063 83.1755L327.564 80.3972L332.287 77.0632L335.343 75.1184H336.177L335.899 76.5076L333.398 79.2859L331.454 81.7864L328.953 85.1204L325.619 90.3992L323.952 93.4553L325.063 92.8997L327.286 90.1213L330.342 87.0652L334.232 84.2869L336.177 83.1755H337.01L336.732 84.5647L333.121 88.4543L329.787 93.1775L327.842 96.7893L329.231 95.9558L333.121 93.1775L335.343 92.0662H335.899L335.621 94.2888L335.065 95.678V96.5115L337.288 94.2888L339.233 93.4553L341.733 91.2327L345.067 89.2878L348.679 86.2317L351.18 84.2869L352.291 84.009L352.013 85.9539L348.957 89.2878L346.734 91.5105L342.567 94.2888L341.178 95.4001L349.513 92.6218L356.181 89.5657L362.849 86.7874L364.238 86.2317H365.349L365.071 87.6208L361.459 90.9548L356.736 93.7332L351.735 95.9558L344.79 99.012L341.733 100.679L337.01 103.735L334.51 105.958L337.288 105.124L352.847 99.8455L357.848 98.1785L364.793 95.1223L369.517 92.6218L370.906 92.0662L371.184 92.8997L368.961 96.5115L367.85 97.9006L365.071 99.8455L357.848 102.902L350.902 106.236L345.901 109.014L342.289 111.514L337.566 114.848L337.288 115.96L342.289 113.181L347.846 110.959L355.625 108.18L364.238 104.846L373.128 101.79L376.74 100.401H378.407L377.852 102.068L376.462 103.735L370.906 107.347L359.792 111.514L353.958 114.293L348.679 117.071L346.734 118.182L346.457 118.738L349.235 118.46L355.347 116.793L364.238 113.459L371.461 109.847L379.241 105.124L380.074 104.569H380.908L381.186 105.958L379.519 108.458L377.296 110.959L374.24 113.181L369.517 115.682L361.737 119.016L357.292 120.961L351.735 122.906L349.513 124.295H348.957V124.85L364.793 120.405L374.795 117.071L378.685 115.96L385.909 115.126H387.854L388.131 115.682L385.353 120.961L382.297 122.906L374.518 125.406L361.182 128.462L350.902 131.518L345.901 133.185L344.512 133.741L349.791 133.185L363.404 130.685L370.35 129.018L380.352 126.517L384.242 125.684L386.742 125.406H391.188L393.132 125.962L392.854 127.629L391.743 129.296L387.854 133.185L385.075 135.13L382.019 136.519L374.24 138.464L366.738 141.242L365.905 140.965L365.627 139.853H358.959V138.742L361.182 137.353L363.96 136.241L372.017 134.574L375.629 133.463H370.35L364.793 134.574L358.125 136.519L358.959 136.797L358.681 138.186L355.903 139.853L351.18 142.076L345.901 143.743H348.401L358.125 141.52H359.515L360.348 142.076H363.126L363.404 143.187L362.293 144.854L357.292 147.91L354.236 149.3L341.178 153.189L333.398 155.134L330.62 155.69H334.51L342.011 154.023L350.068 151.8L355.069 150.133L358.681 147.91L362.849 145.966L370.906 143.465L379.241 140.965L389.798 138.186L394.799 137.075L398.133 137.353L399.8 137.908L400.078 138.464L398.689 141.798L396.188 144.021L393.132 145.966L388.965 147.91L386.187 148.466L383.686 147.91L383.964 146.521L385.631 144.299L387.576 143.465L384.797 144.021L379.519 144.854L377.574 145.966L378.129 147.077L378.685 147.633L378.407 149.022L376.462 149.855L369.239 152.078L365.627 154.856L360.626 156.523L353.125 157.912L344.79 159.857L335.899 161.246L333.121 161.524H337.01L347.568 160.413L363.126 158.468L373.684 157.079L378.407 156.523L381.186 156.801L382.019 157.079L381.463 158.19L378.963 160.413L374.795 162.913L370.906 164.858L364.238 167.359L357.57 168.748L352.291 169.581L338.122 170.693L335.065 171.248L348.957 171.526L360.348 171.804L369.794 170.415H371.739L372.295 171.526L371.739 172.082L356.181 175.971L350.624 177.638L347.568 178.194L344.512 178.472H348.679L364.793 176.527H372.573L377.018 177.361L377.852 177.916L377.574 178.75L376.185 179.028L374.795 180.695L371.461 180.417H365.071L361.459 180.695L362.293 181.528H365.349L371.461 181.25L370.35 182.362L365.905 183.751L362.293 184.584L360.07 184.862L354.514 185.14H349.791L339.511 184.306L339.789 185.14L348.401 186.807L368.961 189.03L378.407 190.697V191.53L374.518 193.753L370.628 195.42L363.96 196.531L361.459 196.809H355.903L349.513 196.253L340.622 194.586L337.844 193.753L338.955 195.142L346.457 198.198L352.291 199.865L362.293 202.365L367.85 204.31L370.628 205.422L372.851 207.089L373.128 207.922L372.573 208.478H370.35L368.405 208.2L374.24 210.7L374.795 211.534V212.645L372.017 212.367L364.516 210.145L349.513 205.422L343.678 203.477L343.956 203.755L352.013 207.922L357.292 210.7L364.238 214.312L368.405 216.813L369.517 217.646L368.961 219.035H366.738L358.403 217.368L352.013 215.146L347.568 213.201L340.622 209.033L339.789 208.756L340.066 210.7H339.233L337.844 209.589L339.511 211.812L342.845 215.979L345.345 219.035L348.124 221.814L353.125 225.426L360.904 231.26L364.793 234.038L365.071 229.593L365.905 222.369L366.183 221.814L376.74 220.425L377.296 218.758L377.852 218.48L382.575 219.313L382.297 219.869L378.129 220.425V221.536L383.964 224.592L387.02 225.148L387.298 222.647L387.576 221.536L390.076 222.092L398.689 225.703L403.134 227.926L406.19 229.593L406.746 230.149L407.024 229.593L407.857 222.369V220.147L403.968 217.924V217.091L406.19 215.979H408.413L411.191 216.257L424.25 214.59L425.361 214.868L427.861 217.646L435.641 228.204L436.196 228.76L465.091 233.76L465.646 234.038L465.091 239.595L462.312 239.317L448.421 235.705L440.364 233.483L439.252 233.205L443.42 239.317V239.873H440.642L441.197 240.984L443.42 242.095L445.087 242.651L443.976 240.706L444.253 239.873L455.922 242.373L463.979 244.04L464.535 244.318L464.257 246.541H462.312L450.921 244.04L445.92 242.929L448.421 247.096L449.254 248.763L447.587 248.486L440.919 246.263L430.362 242.929L425.639 241.54L425.361 242.651L424.527 242.929L419.526 242.095L418.971 241.818V242.373L421.471 243.207L427.028 245.707L433.974 248.763L449.254 253.209L452.588 254.32L450.088 249.875L450.366 249.041L452.866 249.875L462.868 252.097L463.424 252.375V254.876L463.146 257.098L462.312 257.376L456.2 255.709L453.7 255.154L458.423 262.933L460.09 264.878L461.201 267.934H461.757L462.868 257.932L463.979 257.654L476.204 260.71L483.15 262.099L483.428 262.377L482.872 270.156L488.984 271.823L490.651 272.379V272.657L488.984 273.213L489.262 274.602L493.152 275.713L493.43 274.88L497.597 275.713L504.821 277.102L505.099 278.491L504.265 278.769L486.762 275.435L482.039 274.324L481.761 278.214L481.483 278.769L478.982 278.214L450.644 269.879L445.365 268.212L438.975 265.711L441.197 269.601L442.031 270.156L449.532 270.99L451.477 271.546L452.033 272.935L453.422 273.768L453.7 274.88L453.422 275.157H452.033V275.713L455.089 276.547L468.703 280.158L479.26 283.77L480.649 284.326L480.927 285.715L480.094 292.939L479.816 294.328L476.482 293.772L469.536 292.105L465.924 291.272L463.702 290.438L459.256 289.049L454.533 288.493L452.311 288.216V289.327L449.254 288.493L439.53 284.882L433.696 282.659L423.138 278.214L422.583 277.658L422.86 274.88L421.193 274.324L410.636 269.045L407.302 267.1L404.523 265.989L406.468 268.212L408.691 270.156L411.191 272.101L418.693 275.991L422.027 277.38L422.583 277.936L422.305 281.548L418.971 310.998L418.693 312.665L416.47 313.22L398.967 315.443H397.578V312.665L402.301 271.268L402.579 268.49L399.8 267.378L394.521 264.6L390.076 262.377L385.909 260.155L383.686 258.765L383.408 259.043L381.463 276.824L380.352 285.715L378.685 293.772L376.74 299.607L373.684 305.997L371.184 309.609L368.683 312.387L365.905 315.165L362.293 317.666L356.458 320.722L350.624 322.667L343.956 324.056L339.511 324.612H328.953L324.508 323.778L320.062 322.111L316.451 320.166L313.117 317.11L311.172 315.165L308.671 310.998L307.004 306.552L305.893 301.829L305.337 297.662V287.938L307.838 265.433L311.45 233.483L312.005 229.037L312.283 228.482L322.285 227.093L331.454 225.981H333.676V228.482L330.898 252.653L329.231 267.378L327.008 287.104V293.217L327.842 297.94L328.953 300.718L331.176 303.219L334.788 304.885L335.899 305.163H342.011L347.012 304.052L350.902 302.107L353.402 299.885L355.069 297.106L356.736 293.494L357.848 289.883L358.959 283.77L360.904 267.1L363.126 247.096V245.429L358.681 243.207L353.958 240.706L349.513 237.372L345.623 234.594L342.011 231.816L337.288 227.926L333.121 224.314L329.787 220.702L326.453 216.813L322.841 212.09L320.34 208.478L317.562 203.755L313.95 196.809L310.616 187.085L309.505 181.25L308.394 172.915V166.247L310.616 154.856L313.117 141.52L313.672 137.631L313.95 133.463V124.85L312.561 119.572L311.172 117.905L311.45 116.515L312.283 114.015V112.626L310.894 112.348L308.116 113.737L306.727 114.293L307.004 112.904L308.671 110.125L307.282 111.514L305.337 114.015L303.67 116.793H303.115L303.67 112.904L304.504 109.847L306.449 105.68L303.393 109.292L299.781 114.571L297.002 118.46L296.169 119.016L296.447 115.96L297.558 112.904L299.503 109.014L302.003 104.569L303.948 101.512L307.838 96.5115L308.394 95.678L305.06 97.6228L301.17 100.957L299.225 102.902L296.169 107.625L292.835 113.737L290.612 117.905L290.057 118.46H289.223L289.501 115.404L290.89 111.237L294.224 103.179L295.891 99.8455L292.279 104.291L289.779 107.903L285.889 114.015L282.555 120.405H281.444L281.166 119.016L283.111 111.792L284.222 109.292L290.334 97.345L288.39 99.012L286.445 102.068L283.389 106.513L281.166 110.403L276.999 117.905L275.054 119.572H273.109L272.275 118.738L273.665 108.458L274.498 105.124L276.999 99.2898L278.666 95.9558L281.444 92.344L284.5 88.4543L288.667 84.5647L292.557 80.3972L294.78 78.1746L296.169 78.4524L296.447 78.7302H298.392L300.892 77.6189L305.893 74.8406L307.282 74.2849ZM320.896 195.975L321.452 197.642L322.563 200.143L323.119 201.81L325.063 204.032L326.453 205.699H327.008L327.564 206.811H328.12L328.397 207.644H328.953L329.231 208.478L331.454 210.423L334.788 213.757L337.844 217.646L340.9 221.814L340.622 222.092L337.566 221.814L338.122 222.925L341.456 225.981L344.79 228.482L347.846 230.982L349.791 232.927L352.847 235.427L355.625 237.65L360.07 240.706L363.404 242.929L363.96 242.651L364.238 239.039L370.628 242.373L373.962 244.04L376.74 244.874H377.574L377.018 243.762L374.795 241.818L371.461 238.761L367.85 235.983L364.793 234.316L364.516 234.594L363.96 238.484L361.459 236.817L357.848 234.038L354.514 231.26L351.458 228.76L347.846 225.148L345.623 223.481L342.011 220.425L338.122 216.535L337.844 215.979H337.288V215.424L335.621 214.034L332.565 209.589L330.064 205.977L329.509 204.866L327.286 203.199L324.508 200.421L322.285 197.642L321.452 195.975H320.896ZM387.298 225.426L386.742 227.093L384.52 226.815L378.963 225.981H376.462L374.24 225.703V226.537L375.629 227.648L384.242 232.094H384.797L384.52 232.649L383.13 233.205L383.964 234.038L385.631 234.316L385.353 240.151L400.912 247.93L404.246 249.875H404.801L404.523 253.764L402.579 252.931L393.688 247.652L388.409 244.318L385.631 242.373H385.075L383.686 254.598L381.186 252.931L377.296 249.597L375.351 248.208L369.517 245.707L364.238 242.929L363.682 243.207V245.985L369.794 249.319L375.629 252.375L378.129 254.32L379.519 255.709H380.074V256.265L383.13 258.21H383.408L383.686 255.709L386.742 257.376L388.409 258.765H388.965L388.409 257.098L392.577 259.043L395.355 260.988L398.411 263.489L399.8 264.878L401.467 266.823L402.856 267.1L403.134 266.545L404.246 256.543L404.523 254.598L408.969 256.821L415.081 260.155L416.47 260.988L418.415 260.71L423.694 262.099L424.527 261.822L424.805 260.155L427.583 260.988L432.584 263.211L437.863 265.156L438.419 265.433L437.863 264.044L435.641 260.988L433.696 257.932L430.64 253.487L427.028 248.486L426.194 247.652L425.917 247.93L424.527 259.321L416.192 255.431L409.802 252.375L405.357 250.153V246.263L406.468 237.094L405.913 236.817L402.856 237.65L399.8 237.928L392.577 236.817L393.41 234.316L393.966 231.816H398.411L398.133 230.982H397.022L397.3 230.149L400.078 230.704L399.522 230.149L393.41 227.648L387.854 225.426H387.298ZM400.078 232.927L400.356 233.76H401.189V233.205L400.078 232.927ZM414.525 238.206L414.803 239.317L415.081 239.595H418.415L417.304 238.761L415.915 238.206H414.525ZM452.588 262.377L453.144 263.489L455.922 264.878L458.979 265.989L459.534 265.711L459.256 264.322L457.034 263.211L453.978 262.377H452.588ZM422.027 263.489L423.138 264.6L423.694 264.878V268.212L432.862 269.601H434.807L434.251 269.045L427.306 265.989L423.972 264.322L422.583 263.489H422.027ZM423.416 269.323L422.86 274.88L425.917 276.269L436.752 280.436L445.087 283.77L449.254 285.159H450.088L449.532 283.492L446.198 277.658L444.531 274.88L443.698 274.046L440.086 272.935H437.308L430.362 271.546L424.25 269.323H423.416ZM449.254 274.046V274.88L450.644 275.157L450.366 274.324L449.254 274.046Z" fill="#52D95B"/>
<path d="M269.219 54.5588H276.165L297.002 55.3923L314.228 56.5037L324.23 57.615L336.455 59.8376L346.179 61.7825L355.069 64.283L358.681 65.6721L358.959 66.7834L358.681 67.0613L354.514 66.7834L340.9 65.1165L324.23 62.616L316.173 62.0603H303.948L303.67 63.1716L303.115 63.4495L296.169 64.283L291.446 65.6721L288.667 66.7834H286.445L281.444 65.95L280.61 66.7834L279.777 67.8948L276.721 69.5618L273.942 70.9509L272.275 71.2288L270.331 70.3953L268.664 70.1174L268.941 72.0623L267.83 73.7292L265.607 75.1184L261.718 76.7854L260.606 76.5076L260.051 76.2297V77.0632L257.55 78.1746L255.328 79.0081L253.383 79.2859L252.549 80.1194L245.881 82.8977L251.16 82.6199L256.439 80.675L261.162 79.2859H262.273V80.1194L255.883 83.1755L248.382 86.2317L242.547 88.1765L239.491 88.7322L233.657 89.2878L232.268 89.01L228.378 91.2327L221.988 94.5667L213.931 98.1785L204.484 102.624L201.706 103.735H201.15V104.291L207.541 102.902L213.097 100.957L219.487 98.1785L227.267 95.1223L235.324 91.2327L241.714 89.2878L244.492 88.7322H246.159L246.715 89.8435L245.604 90.677L238.658 92.8997L233.935 94.5667L222.821 99.5676L214.486 103.179L204.207 106.791L198.372 108.458L187.259 110.959L176.146 113.181L168.644 114.293L160.309 114.848L159.753 115.404L162.532 115.96L166.977 116.515L167.255 117.627L164.477 118.46L160.587 119.572L151.974 120.683L133.359 122.35L121.135 124.017L113.355 125.684L109.188 127.073L102.52 129.851L98.6304 131.796H97.7969L98.0747 130.407L98.9082 129.018L101.687 127.629L102.52 125.684L104.465 123.739V123.461L99.4639 127.073L95.8521 129.573L90.8511 133.741L89.7397 136.519H89.1841L89.4619 132.907L90.8511 129.573L91.1289 129.018L89.7397 130.407L88.6284 131.796L85.2944 138.464L84.4609 138.186L84.1831 137.631V135.686L85.0166 132.352L85.8501 130.129L83.0718 134.852L81.9604 136.241L80.5713 135.686L80.2935 134.574L81.4048 129.573L84.7388 124.295L87.7949 120.961L90.5732 118.182L93.6294 115.96L98.6304 112.348L102.798 109.57L106.965 107.069L111.411 104.846L118.912 101.235L125.58 98.7341L136.416 95.4001L142.806 94.011L160.309 90.9548L166.144 89.5657L175.868 86.5095L182.813 83.4534L188.37 80.9529L195.316 77.3411L206.429 71.2288L210.597 68.7283L216.709 65.95L222.543 63.7273L232.545 60.6711L240.047 59.0042L247.548 57.615L256.717 55.948L258.662 55.3923L264.218 54.8367L269.219 54.5588ZM261.44 72.6179L259.773 73.4514L249.493 75.9519L240.047 78.7302L231.99 82.0642L228.1 83.7312L223.655 85.3982L216.153 88.7322L214.486 89.2878L213.097 89.01L208.93 91.5105L207.263 93.1775V94.011L208.652 93.4553L211.708 92.0662L210.319 94.5667L208.096 96.2336L208.652 96.5115L211.152 95.1223L213.097 94.5667L214.486 92.8997L219.487 89.8435L223.933 87.6208L232.268 84.009L239.213 80.9529L246.715 78.4524L253.105 76.7854L256.995 75.6741H258.939L261.162 74.5627L264.496 73.1736L264.774 72.6179H261.44Z" fill="#52D95B"/>
<path d="M250.049 214.868L253.938 215.424L255.328 216.257L256.717 217.924V219.313L255.05 220.425L254.216 222.369L253.105 224.592L252.549 224.314L252.271 223.481V221.258L252.549 220.147L250.604 219.869L251.16 222.092V225.981L250.882 226.815L250.049 226.537L248.382 223.203L247.271 223.759L245.881 222.925L246.715 227.37V229.871L245.881 230.704L244.77 230.149L243.659 228.76L243.381 227.37L243.659 230.982L243.103 234.316L241.992 235.705L240.047 235.983L240.88 236.261L247.826 235.15H249.493L248.938 236.261L247.548 237.372L245.881 241.818L245.604 242.651L246.993 243.207L250.882 245.707L252.271 246.819L256.161 249.597L256.995 249.875H259.217L260.051 249.041L260.606 247.652V245.985L259.495 243.762L259.217 242.373V240.428L261.718 240.984L262.829 235.983L264.218 235.427L263.107 234.872L260.329 234.594L259.773 234.316L259.495 235.983L258.384 238.761L256.995 238.484L255.605 237.65V237.094H257.55L256.717 234.594L250.327 234.872L250.882 233.76L252.271 232.649L257.272 225.148L258.939 222.925L259.773 222.092L261.44 222.369L263.663 223.481L266.163 225.703L268.664 228.76L269.219 229.871L268.664 230.149L265.33 229.315L265.607 232.649L265.885 232.927L265.607 234.872L271.164 236.261L275.609 237.928L276.999 238.761H277.832L280.333 233.76L282.277 234.038L281.444 233.205L281.722 231.816L282.833 230.149L284.778 228.204L286.723 226.815H288.945L292.279 228.204L294.78 231.538L295.891 233.76L295.613 235.983L295.335 237.372L294.224 236.817L293.946 235.427H293.113L292.557 238.206L291.724 240.428L290.612 240.151L288.667 237.928V237.372L287 236.817L283.667 234.872L285.056 236.261L287.278 238.761L288.667 241.262L288.39 242.651L287 244.04L286.445 246.541H285.611L282.555 242.929L281.444 242.373L280.888 244.596L279.221 248.208L277.832 253.209L278.943 253.487L278.666 259.321L280.888 260.155L282.277 259.877L283.111 259.599L283.667 256.821L283.389 255.154L282.277 254.042L281.166 253.487V251.542L284.222 251.82L284.778 251.542L285.889 247.652L286.445 247.374L288.39 251.264L289.779 255.709L290.334 260.432V265.989L289.501 270.99L287.834 275.435L285.333 279.325L282.833 282.381L279.777 285.437L275.887 288.216L271.72 290.716L269.219 291.827L270.886 294.328L274.22 299.607L276.999 304.33L280.888 311.553L284.222 317.666L287.278 323.778L289.223 327.946V328.779L269.775 331.28L266.441 331.557L265.052 329.335L261.996 323.222L258.939 316.832L255.05 309.053L251.994 303.774L249.215 299.607L248.382 298.495L244.492 298.773L237.546 299.607L234.49 326.279L233.379 335.447L230.878 336.003L213.097 338.225L211.708 337.948L212.819 327.946L217.265 288.216L221.432 250.986L222.543 240.984L224.766 240.151L226.989 239.595L226.155 242.095L225.044 247.93V249.875L225.322 251.264L225.877 250.986L227.267 244.318L227.822 241.262V239.317L230.323 238.206V237.65L227.822 235.983L227.544 235.15H226.989L227.267 233.76L228.934 231.26L232.823 227.648H233.379L233.935 226.537L235.602 224.592H236.157L236.435 223.759L239.769 220.425L241.992 219.035L245.604 218.758L248.66 215.701L250.049 214.868ZM234.768 237.928L233.379 240.706L232.823 242.373H232.268L231.99 243.207L233.379 246.541L234.768 247.374L236.713 247.652L238.38 246.263L238.658 245.152V242.929L236.991 238.761L236.157 237.928H234.768ZM247.548 245.985L246.993 246.819L246.159 250.986V254.042H248.104L248.66 253.487L249.493 248.208V246.819L248.382 245.985H247.548ZM227.267 250.708L226.433 254.876V256.265L230.045 256.543L232.545 255.987L233.101 254.876L232.823 254.598L228.1 254.876L229.211 252.375L228.934 250.986L227.267 250.708ZM254.494 252.931L248.938 253.487L248.382 254.042L247.548 259.043V260.71L246.715 260.155L246.437 255.709L246.159 254.042L242.825 254.598L242.27 255.431L240.047 275.991L239.491 280.158V281.825L244.214 281.548L251.438 280.436L256.717 279.047L260.329 277.38L263.663 275.435L266.441 272.657L268.108 269.879L268.941 265.989L268.664 262.099L267.552 258.765L265.607 256.265L263.385 254.598L260.329 253.487L256.161 252.931H254.494ZM272.275 258.488L271.442 262.099V264.322L272.275 267.656L273.387 269.323H273.665L274.22 264.878L274.498 259.321L273.109 258.488H272.275ZM288.112 260.155L287 263.211L285.889 264.878L284.778 265.989L281.166 265.711L277.832 265.156L277.276 265.433L277.554 266.823L279.221 269.045L283.667 269.879L285.889 268.49L288.112 265.711L288.945 261.266V260.155H288.112Z" fill="#52D95B"/>
<path d="M206.429 241.262H208.096L207.263 242.651L205.318 244.874L202.817 247.93L199.483 251.82L196.983 254.876L193.649 258.765L191.148 261.822L188.092 265.433L185.592 268.49L182.258 272.379L179.479 275.435L176.979 278.491L175.034 280.436L174.756 280.992H174.201L173.645 282.103L169.478 286.549L165.588 290.438L165.31 290.994H164.754L164.199 292.105L163.087 292.939L163.643 294.05L166.421 296.551L168.644 298.495L175.868 305.719L177.812 307.942L180.313 310.72L182.813 313.776L185.592 317.11L188.926 321.555L193.093 327.668L196.427 332.947L200.039 339.059V339.615L194.76 340.448L176.701 342.671L175.034 340.17L171.145 334.058L167.533 328.779L163.643 323.5L160.587 319.888L158.364 317.11L154.475 312.943L150.585 309.053L147.529 306.552L146.695 305.719L146.417 305.997L145.306 315.999L142.806 336.836L141.694 346.56L139.75 347.116L122.524 349.339L120.301 349.616L120.023 349.339L120.301 345.449L125.024 303.774L128.914 269.601L129.47 266.267L123.357 266.545H119.19L118.356 266.267L118.912 265.156L128.358 264.044H129.748L130.025 259.877L130.859 252.097L131.137 250.708L141.139 249.319L152.53 247.93L152.808 249.319L151.974 255.154L148.084 256.265L142.806 258.21H142.25V258.765L143.917 259.321V260.155L148.084 258.488L151.418 256.543L151.974 255.709L151.696 258.488L151.418 260.155L157.531 256.543L161.976 253.764L165.31 251.82L167.255 251.542V252.653L163.365 255.709L158.642 259.043L153.085 262.377L151.141 263.489L148.918 282.103L148.64 283.215L150.585 281.548L152.53 279.325L155.586 275.991L157.531 273.768L160.587 270.434L162.532 268.212L165.032 265.433L166.977 263.211L169.755 260.155L171.145 258.488L166.699 259.321L166.421 258.765L167.811 257.098L174.479 253.487L175.034 253.209L174.479 254.598L172.256 257.376H173.089L178.646 254.32L183.091 251.542L186.147 249.041L188.37 247.374L189.204 245.985L187.259 246.819L180.591 250.43L176.701 252.653H176.146L176.701 251.542L178.646 249.319L181.702 245.429L182.536 244.318L202.262 241.818L206.429 241.262ZM140.861 262.933L129.748 264.044L130.303 265.711H134.193L143.639 264.6L142.528 264.044L141.972 262.933H140.861Z" fill="#52D95B"/>
<path d="M40.2856 251.542L43.8975 251.82L50.2876 252.653L58.0669 252.097L63.6235 251.542L66.9575 252.097L69.1802 254.042L72.2363 257.932L73.6255 260.432L75.0146 261.544L74.7368 262.655L68.9023 264.878L65.5684 267.934L62.5122 270.434L61.123 271.546L60.2896 271.268L60.5674 269.601L61.9565 266.823L62.5122 265.989L58.3447 267.1L56.6777 269.601L55.5664 268.767L55.2886 267.656L55.5664 265.156H55.0107L52.5103 269.601H51.3989L50.5654 268.49L51.9546 276.269L54.7329 289.605L60.0117 314.332L62.79 325.723L63.6235 329.613L64.1792 329.89L65.0127 327.39L68.0688 320.444L72.5142 309.886L75.0146 303.774L78.3486 295.439L85.0166 278.214L88.6284 268.49L92.7959 256.821L93.6294 255.154L114.189 252.653H116.134L115.856 254.32L114.189 258.765L113.911 259.043L105.576 260.155L106.132 260.71L113.078 260.988L112.244 263.766L109.466 270.99L105.021 282.103L100.575 292.939L93.0737 310.442L89.7397 317.944L85.2944 327.668L81.4048 336.003L71.9585 354.895L71.4028 355.451L61.123 356.84L52.2324 357.951L51.1211 357.674L48.8984 351.006L44.4531 336.281L40.5635 322.389L35.8403 305.163L31.9507 290.16L29.4502 279.881L28.3389 274.88L28.061 272.379L25.5605 269.601L24.7271 268.212L25.2827 266.823L26.1162 265.989V263.766L28.061 263.211L31.1172 262.933V263.489L27.2275 265.433H26.6719L26.9497 268.49L27.5054 270.712L28.8945 270.434H31.6729L37.7852 272.657L39.1743 271.268L40.2856 269.601L41.397 266.267L42.7861 265.989L43.064 266.267V267.656L45.0088 268.212L44.731 269.879L43.064 274.324L45.2866 273.49L46.3979 267.378V262.933L48.6206 261.822H49.1763V260.71L44.731 261.544L43.6196 264.878H41.6748L40.2856 264.322L39.1743 262.933L38.3408 262.655V262.099L39.73 261.266L40.2856 259.877L40.5635 259.599H45.5645L48.6206 259.877H54.4551L58.6226 259.321L56.1221 258.765L47.7871 258.488L45.2866 258.21H36.1182V255.709L36.6738 253.764L38.3408 252.375L40.2856 251.542ZM33.062 273.213L31.9507 274.602L31.6729 277.936L32.7842 278.214L34.4512 276.269L34.729 274.046L33.8955 273.213H33.062Z" fill="#52D95B"/>
<path d="M244.492 125.684L245.048 125.962L244.492 128.74L243.381 132.074L240.88 137.631L239.213 140.965V142.076L240.047 141.798L240.603 140.687L243.659 137.353L246.159 134.297L249.215 130.685L251.994 127.351H252.827L252.549 128.74L250.327 132.907L246.715 138.742L243.659 143.465L240.325 148.744L239.491 150.411H241.158L240.88 151.8L238.658 154.856L235.046 158.468L232.823 161.246L229.489 163.191L229.211 162.08L230.323 159.024L231.434 157.635L232.268 151.244L229.767 153.189L226.711 156.523L226.155 157.079L224.766 160.691L223.655 163.747L222.821 167.914L221.432 169.303L217.542 172.082L213.653 173.749H212.819L213.375 172.082L214.486 170.415L217.542 167.081L218.098 166.525L216.709 167.081L212.264 170.415L207.263 173.471L205.04 174.86L197.539 177.916L191.704 179.583L185.87 180.695L177.812 181.806H175.59H174.479L169.2 182.639L158.92 183.751L151.974 184.306L144.473 184.584L134.749 183.751L121.135 181.25L111.411 179.305L100.853 176.805L95.8521 174.86V173.749H99.4639L105.021 174.582H105.854L100.297 173.193L100.02 172.082L102.242 170.97L104.187 170.693H108.077L112.8 171.248H115.856L116.412 170.693L109.744 167.914L100.297 165.136L94.7407 163.747L90.0176 162.913L86.1279 162.635H81.9604L77.2373 163.469L72.792 164.858L68.9023 166.525L66.124 168.47L63.0679 170.97L60.5674 174.027L59.4561 174.86L58.6226 170.97V167.636L60.0117 160.691L61.6787 157.357L63.9014 154.023L66.4019 150.967L69.458 147.633L73.9033 144.299L76.9595 141.798L78.3486 140.687L79.7378 140.965L84.1831 143.465L86.4058 145.132L87.5171 147.633L89.1841 152.911L90.2954 154.856L92.2402 157.079L98.6304 160.135L112.244 164.58L120.579 168.192L125.024 170.415L128.081 171.804L133.637 173.749L140.583 175.138L145.584 175.971H153.919L164.199 174.86L167.811 174.304L169.2 174.582V174.027L172.812 173.193L175.59 172.637H176.979V172.082L176.146 171.804L176.701 170.693L177.535 169.303H176.979L177.257 167.914L177.812 167.081L176.423 166.803L168.644 164.58L168.366 163.747H166.977L165.866 164.025L155.03 162.08L151.974 160.969L146.417 158.468L143.639 156.801L141.417 154.578L141.972 153.467L143.083 152.078L144.473 151.522L142.806 151.8L141.139 152.356L139.75 152.078L140.027 150.689L144.195 146.521L141.694 148.188L140.305 149.3H139.75L140.027 147.91L142.528 145.132L146.973 142.354L150.863 140.965L160.865 137.631L162.81 137.075H164.754L164.199 138.186L160.309 140.965L159.198 141.52L158.642 142.632L156.697 144.576L157.531 145.41L159.753 146.799L163.365 149.577L166.144 151.244L169.2 152.078L172.534 152.634L175.59 152.356L182.258 150.967L193.649 147.077H195.316L195.594 147.633L188.926 150.411L181.702 153.467L178.09 155.134L181.98 154.856L187.259 154.023L189.204 154.301L189.759 154.578L189.481 155.69L187.814 157.635L184.48 159.302L180.313 160.413L176.423 160.969L175.59 161.802L170.311 163.191L171.7 163.469H175.59L180.313 162.08H183.369L184.48 164.58L186.703 165.692L187.814 166.525H188.926L189.204 165.969L192.538 165.136H193.927L194.482 165.692L196.427 164.58H196.983V164.025L195.316 163.747L194.76 162.08L195.872 160.691L198.372 159.857L199.206 158.468L201.706 157.635L203.095 156.245L202.262 150.967L200.317 150.411L200.873 149.022L208.096 145.132L215.042 140.687L219.487 137.075L222.266 134.852H223.377L223.099 136.241L220.876 140.131L217.542 145.688L214.764 150.133L211.43 154.023L209.208 156.801L206.429 159.024L202.817 161.246L207.263 159.024L211.986 156.245L216.153 153.467L220.043 150.133L223.099 147.077L226.433 142.632L230.045 137.631L231.99 134.574L234.768 130.129L237.269 126.517L238.102 126.24L237.824 128.462L236.435 132.907L233.935 138.186L229.767 144.854L226.155 148.466L225.877 149.022H225.322L224.766 150.133L221.432 153.189L218.376 155.69L217.265 156.801L216.987 157.912L218.654 156.801L220.599 154.856L223.377 152.634L225.6 150.411L230.045 146.521L233.657 141.52L241.714 129.573L243.937 126.24L244.492 125.684Z" fill="#52D95B"/>
<path d="M162.532 189.585L165.31 189.863L168.644 190.419L168.366 191.252L164.199 193.475L163.921 194.031L167.811 193.475H175.312L176.423 194.031L176.146 194.586L166.977 196.531L161.698 197.365H171.422L181.146 197.642L184.203 198.198V199.031L182.536 199.587L171.978 200.143L166.977 200.976L159.476 202.921L158.364 204.032L161.143 203.755L164.754 203.199L170.311 202.921H173.645L175.59 203.199V204.032L170.589 205.422L160.865 207.922L154.752 210.7L153.641 211.812L159.476 210.423L167.533 209.311L170.589 209.033H176.146L176.701 209.311L176.423 210.145L168.644 211.812L161.42 213.479L150.307 216.813L145.862 218.48L138.36 221.536L133.915 223.759L129.47 226.537L132.248 225.703L137.527 224.036L140.305 223.481L141.139 224.036L140.861 224.87L138.083 225.426L137.527 226.537L141.972 225.703L143.917 225.981L143.639 226.815L137.805 229.315L128.358 232.927L120.857 235.705L115.578 238.206L115.3 238.761L119.746 237.65L129.748 235.427L148.918 230.704L151.974 230.149V231.26L144.195 234.038L130.859 237.65L120.301 240.428L111.688 242.651L104.465 245.152L96.4077 248.486L89.7397 250.986L84.4609 252.375L85.8501 254.042V254.598L83.3496 254.32L74.459 252.097L70.5693 250.153L70.8472 248.763L71.6807 247.93L75.5703 246.819L78.3486 245.152L81.127 244.318L83.9053 242.373L87.5171 240.706H88.9062V240.151V239.039L93.0737 236.261L100.575 232.649L105.298 230.427L109.744 227.648L108.077 227.926L105.298 229.037H104.187V227.926L110.855 223.481L118.634 219.035L117.801 218.758L118.356 217.646L120.023 215.701L122.802 213.479L125.024 211.256L129.748 208.478L134.749 205.699H135.304V205.144L130.303 206.811H129.47L130.025 205.699L132.248 203.755L139.194 199.031L144.195 195.142L147.251 192.641L151.418 191.252L155.864 190.419L162.532 189.585Z" fill="#52D95B"/>
<path d="M181.702 3.43774H184.203L186.425 3.99341V4.54907L182.536 5.6604H181.702L181.98 7.04956L181.146 7.88306L169.478 13.7175L167.811 13.4397L167.255 15.1067L164.199 17.6072L159.753 21.7747L156.975 24.553L154.752 27.3313L151.974 31.7766L150.585 35.1106L150.029 36.4998H149.196L148.362 35.3884L148.918 32.0544L150.585 28.1648L153.085 23.4417L155.864 19.552L156.142 18.7185L150.307 25.3865L147.807 28.4426L145.584 29.554L145.306 30.6653L145.028 34.8328L143.917 35.1106L142.25 34.5549L141.694 36.7776L140.861 37.0554H138.36L137.527 36.2219L136.693 33.7214V32.0544L139.75 28.1648L138.36 29.2761L136.416 31.4988L135.304 32.3323L135.026 32.0544L135.304 29.8318L136.138 27.0535L134.471 31.4988L132.804 37.8889L131.97 38.1667L130.025 37.0554L128.914 36.2219V33.7214L130.303 27.887L131.97 24.8308L133.637 22.886L134.471 20.9412L135.026 19.8298L131.415 23.4417L130.025 26.4978L127.803 34.8328L127.525 35.3884H124.747L123.357 34.2771L122.524 32.8879L122.802 34.2771L123.913 35.9441V36.7776L121.968 36.4998L119.746 34.8328L121.413 37.0554L122.524 38.4446L124.469 39.5559L126.969 40.1116L134.749 40.9451H143.083L161.976 40.6672L162.254 39.8337H166.144L172.812 40.1116L178.646 40.9451L190.037 43.1677L196.149 45.1125L201.706 47.3352L206.985 49.8357L209.763 51.7805L210.875 52.8918L211.152 54.0032L210.041 54.281L205.874 53.1697L200.595 51.2249L195.872 49.28L183.091 46.7795L174.201 45.1125L168.922 44.5569L151.974 43.7234H126.136L119.468 42.6121L116.134 41.7786L112.244 39.5559L109.188 36.4998L108.354 34.5549V32.3323L109.466 27.887L111.133 25.3865L115.3 20.9412L119.19 18.1628L123.357 15.9402L130.859 13.1619L135.026 11.217L137.805 10.9392V12.0505L134.749 14.551L132.526 16.218L131.137 17.3293L130.025 18.9963L132.526 17.3293L135.86 14.8289L141.139 11.217L145.028 8.99438L149.196 7.60522L156.975 5.93823L160.587 5.38257H162.532V6.21606L157.531 8.43872H156.975V8.99438L161.42 7.88306L167.533 5.93823L172.256 4.8269L178.924 3.71558L181.702 3.43774ZM138.36 22.6082L137.805 24.2751L138.638 23.4417L138.36 22.6082ZM137.527 24.2751L136.971 25.6643L137.805 24.8308L137.527 24.2751Z" fill="#52D95B"/>
<path d="M444.253 200.143H450.366L458.145 201.532L476.76 204.588L489.818 206.811L491.485 207.366L490.374 207.922H489.818L488.429 220.147L493.43 220.425L503.432 221.258L505.932 221.814V222.925L500.653 223.759L496.486 224.036H488.429L487.595 223.759L487.873 225.148L487.04 233.483L491.763 234.316L491.485 235.15L486.762 234.316L486.484 237.094L485.373 237.372L467.036 234.316L465.646 233.76L465.924 228.204L462.59 227.648L462.035 227.093L462.59 226.259L461.201 225.981L459.256 225.148L458.979 224.592L462.035 224.87L466.48 225.703L466.758 222.647L463.979 222.369L451.755 220.147L443.698 218.48L435.363 216.257L431.751 215.146L421.471 212.645L421.749 211.534L425.361 210.978L431.751 211.812L447.865 214.59L462.868 217.091L467.313 217.924L467.036 222.369L469.814 222.647L473.426 223.759L475.371 224.036H481.483L487.04 223.759L483.15 222.925L479.538 221.536L478.982 220.425L480.372 219.869L475.093 219.313L468.147 218.202L467.591 217.924V215.146L468.147 210.145L468.703 209.311L462.868 208.478L460.646 207.644L450.088 205.422L449.81 204.31H447.31L443.42 204.032L437.863 205.422H435.918L434.807 204.588L434.529 202.365L444.253 200.143Z" fill="#52D95B"/>
<path d="M536.494 108.458L540.105 108.736L543.717 109.57L544.551 110.125V110.681L537.327 113.181L534.271 114.848L533.715 116.238L538.438 114.015L543.995 112.348H545.384L544.829 113.459L540.939 115.96L533.993 119.849L529.826 122.906L526.214 124.85L523.713 125.684L518.99 125.962L517.601 128.462L515.101 129.296L510.1 131.518L507.043 132.907L499.542 134.019L495.375 134.574L491.207 134.297L489.54 131.796L486.762 129.851L485.928 129.296L480.094 129.018L479.538 129.573L467.869 130.129L464.813 130.407L463.979 129.851V129.296L470.37 127.073L474.259 125.128L481.761 124.017H484.261L485.65 124.295L488.151 123.183L496.208 120.683L502.876 118.738L514.267 115.126L525.658 111.237L530.659 109.57L536.494 108.458Z" fill="#52D95B"/>
<path d="M523.436 89.2878H525.38V90.1213L522.88 92.6218L517.879 95.9558L515.934 97.0671V97.345L520.102 97.0671L523.436 95.4001H524.825L524.547 96.5115L523.158 97.6228L521.213 100.401L517.601 103.179L509.266 108.18L504.265 111.237L500.375 113.459L495.652 115.682L489.54 117.627L486.484 118.46L476.482 119.294L463.146 121.794L459.256 122.35H457.589L458.979 120.961L462.868 119.016L467.869 117.349L471.481 116.793L477.871 116.515L483.15 115.96L485.095 115.126L488.707 112.904L493.152 110.681L487.595 112.904L478.427 115.682L475.371 116.238H470.37L463.979 117.071L457.589 117.627H455.645L453.144 116.793V116.238L456.2 114.848L464.257 112.904L475.926 108.736L482.594 106.513L490.096 102.624L501.765 97.6228L508.155 94.5667L512.044 92.6218L517.879 90.3992L521.213 89.5657L523.436 89.2878Z" fill="#52D95B"/>
<path d="M282.277 155.412L283.111 155.69L282.833 157.079L280.055 160.969L276.443 165.414L273.387 168.748L270.331 171.804L264.774 175.971L260.606 178.75L254.494 181.806L249.493 184.584L241.992 188.474L240.325 189.03L242.825 188.752L249.493 187.363L255.605 185.14L261.44 182.639L267.552 179.583L271.164 177.361L275.609 174.304L278.388 172.082L281.722 168.748H282.277L282.555 169.581L280.055 172.36L275.054 177.361L272.831 177.916L272.275 179.028L269.775 180.972L265.052 183.751L256.995 187.64L251.716 189.863L242.547 192.641L235.324 194.031L230.323 194.586H227.267L213.653 192.086L201.706 189.863L200.317 189.307L200.039 187.918L196.705 187.363L190.871 186.251H189.759V186.807L186.981 186.529L182.536 185.696V184.862L185.314 183.473L189.481 182.362L190.871 182.639L191.148 183.195H193.927L199.483 182.362L210.597 179.861L215.32 178.472L220.043 176.527L228.656 174.304L232.268 173.193L233.657 173.471L233.101 174.582L228.656 177.361L221.432 180.139L214.486 182.639L207.263 184.862L203.373 185.696L198.65 186.529H205.04L211.152 185.14H212.542L213.375 186.251L223.655 184.029L231.156 181.528L235.324 179.861L235.602 179.305L233.657 178.75V178.194L237.546 176.805L238.936 176.249L240.047 176.527L239.491 178.194L238.38 179.305L240.88 178.75L245.604 177.361L246.715 177.638L246.159 178.75L242.547 180.972L240.325 182.084L231.99 185.14L223.655 187.918L217.542 189.585L212.264 190.419H218.098L224.766 189.307L231.712 187.64L240.603 184.862L248.938 180.972L251.438 179.583L255.605 177.083L264.496 172.637L267.274 170.97L270.886 168.192L273.665 165.692L274.498 164.858H275.054L275.609 163.747L278.666 160.413L282 155.968L282.277 155.412Z" fill="#52D95B"/>
<path d="M548.996 129.573H552.886L555.386 130.129L555.942 131.24L553.164 132.907L544.551 136.241L541.772 137.353H543.995L552.33 134.852L557.053 132.907L558.165 133.185L557.609 134.297L551.497 137.631L543.439 140.687L534.827 144.021L528.437 145.688L512.322 150.133L502.32 152.634L492.041 154.023H489.54V153.189L493.985 150.967L499.264 149.577L517.045 145.132L521.213 144.021L513.156 144.576L500.375 145.688H495.375L495.097 144.854L496.208 143.743L496.486 142.632L508.71 140.409L509.822 140.131H503.432L495.375 140.687L469.814 141.52L468.98 141.242V140.409L472.592 139.575L478.705 138.742L500.653 137.075L504.821 136.797H512.322L516.49 137.631H518.435L525.38 135.408L538.994 131.796L545.384 130.129L548.996 129.573Z" fill="#52D95B"/>
<path d="M502.042 73.7292L503.432 74.2849L502.598 75.9519L500.375 78.1746L495.097 82.0642L492.596 84.009L492.874 84.5647L494.263 84.2869L497.042 82.342L500.931 80.1194L503.987 78.7302L505.376 79.0081L505.099 79.8416L500.098 83.1755L495.097 87.0652L488.707 91.5105L482.594 94.8445L472.037 100.123L467.869 102.068L457.867 106.236L453.978 107.625L448.421 108.458L444.253 108.736L443.976 107.347L442.309 107.903L439.53 107.347V106.791H440.086V106.236L443.42 104.569L448.977 102.346L449.532 101.79L446.198 102.624L438.975 104.846L435.363 105.68H433.418L432.029 105.124L432.307 104.291L440.364 102.346L448.977 99.8455L454.533 97.6228L462.59 94.011L470.647 89.8435L480.372 84.2869L486.762 80.3972L491.485 77.8967L500.653 74.0071L502.042 73.7292Z" fill="#52D95B"/>
<path d="M476.482 64.0051H478.982L478.705 65.3943L477.038 67.6169L472.87 71.2288L470.092 73.7292L466.48 76.5076L466.202 77.0632L467.869 76.5076L470.37 74.8406L471.481 75.9519L476.482 72.0623L477.871 71.5066L477.593 72.8958L474.259 75.9519L471.203 78.4524L466.758 82.0642L464.257 84.5647L462.035 86.5095L458.145 89.01L454.811 91.5105L450.366 94.011L447.032 95.9558L443.976 97.6228L437.308 99.8455L428.417 101.79H427.028L426.75 100.679L423.416 100.123L422.305 99.012V98.4563L429.25 94.8445L434.529 92.0662L439.53 89.01L445.087 85.3982L451.755 80.9529L457.312 77.0632L461.757 73.4514L467.036 69.5618L474.815 64.8386L476.482 64.0051Z" fill="#52D95B"/>
<path d="M548.163 154.578H556.22L563.443 155.968L568.167 157.357L567.889 158.19L566.5 158.746L558.442 159.579L546.218 161.802L541.217 162.913L540.939 163.747L550.941 162.358L553.997 161.802H555.942L556.22 162.635L546.218 165.969L542.05 166.803H540.105L538.716 166.247L538.161 165.414V163.747L532.604 164.302H523.991L523.713 165.136H519.546L507.877 164.58L503.432 164.025H495.097L478.705 163.469L476.76 162.913V162.358L478.149 162.08L490.651 161.246L503.709 159.857L516.212 158.746L528.437 157.079L531.215 157.635L531.771 156.523L537.883 155.412L548.163 154.578Z" fill="#52D95B"/>
<path d="M193.093 5.93823H210.041L218.098 6.77173L220.043 7.32739V7.88306L211.43 9.27222L204.762 11.4949L200.873 12.884L198.094 13.4397L196.705 14.8289L192.815 16.7737L189.204 20.1077L185.87 24.553L183.091 27.3313L180.591 30.3875L177.535 34.8328L176.146 36.4998L175.312 36.2219L175.59 34.2771L176.701 31.2209L179.479 26.22L183.091 20.3855L186.147 17.0515L188.926 14.551L191.982 12.6062L197.539 10.6614L207.263 8.16089L200.317 8.71655L196.427 8.99438H195.872L195.316 9.82788L187.259 11.7727L183.369 13.7175L180.035 16.218L177.535 18.1628L174.756 21.219L171.7 25.1086L168.922 28.4426L165.866 32.8879L163.921 34.2771H163.087L163.365 30.9431L164.754 28.1648L169.478 21.219L171.978 18.4407L173.923 16.4958L172.812 17.0515L169.2 20.1077L166.977 22.0525L165.588 23.4417L163.365 25.9421L160.587 29.554L158.086 32.6101L157.253 33.4436H156.697L156.975 31.4988L158.086 28.1648L160.309 24.553L162.81 21.219L166.144 17.6072L170.033 14.551L176.701 10.9392L186.981 7.32739L191.426 6.21606L193.093 5.93823Z" fill="#52D95B"/>
<path d="M552.608 175.138L553.719 175.416V178.75L555.108 180.417V180.972H550.107L548.996 181.806L540.105 184.029L537.049 184.306L535.66 183.195L515.656 182.917L513.711 182.639L513.156 182.917L508.155 183.195L505.376 182.917L504.821 183.751L500.375 183.473L495.375 182.639L493.985 182.084L485.373 181.25L479.538 180.139L479.816 179.028L493.152 178.75L495.93 178.472L498.708 177.916L507.599 177.083L522.046 176.249L534.271 175.971L543.717 176.249L548.163 176.805L548.44 175.971L552.608 175.138Z" fill="#52D95B"/>
<path d="M354.792 68.7283H358.681L366.738 70.3953L371.184 71.7844L373.406 74.0071L375.073 74.8406V76.2297L380.074 77.3411L384.52 78.7302L389.798 81.5085L390.354 82.6199L384.242 82.8977L377.852 84.5647L372.295 86.2317L370.35 85.9539L368.961 84.009L369.239 82.0642L369.794 80.3972L366.46 80.9529L361.459 83.7312L359.237 84.2869H357.292L356.736 83.7312L357.292 80.9529L358.681 79.5637L363.126 76.5076L365.627 74.8406L365.905 74.2849L363.404 74.8406L358.125 75.6741L350.346 77.3411L344.234 78.7302H342.845L343.123 76.7854L344.79 74.5627L345.901 73.4514H339.233L339.511 72.3401L341.733 71.2288L348.401 69.5618L354.792 68.7283Z" fill="#52D95B"/>
<path d="M224.21 8.16089H228.1L232.545 8.99438L233.379 9.27222V9.82788L227.822 10.1057L227.267 11.217L226.433 11.7727L223.377 12.3284L221.154 13.1619L219.209 12.884L217.542 12.6062L215.32 13.1619L215.042 13.7175L216.987 13.9954L217.265 15.1067L213.931 18.1628L211.708 20.1077L208.93 22.6082L206.707 24.553L202.262 28.7205L200.039 30.9431L196.983 34.8328L195.038 37.0554L194.205 37.3333L193.927 36.4998L197.539 29.8318L200.317 25.3865L202.817 22.3303L204.762 19.8298L202.262 21.4968L199.483 24.2751L193.371 32.0544L191.426 34.8328L189.759 37.6111L189.204 37.8889L189.481 35.6663L190.871 30.9431L193.649 25.9421L196.427 22.3303L197.816 20.9412L199.206 19.2742L196.427 20.9412L193.093 23.9973L191.148 26.22L188.648 29.2761L185.036 34.8328L183.369 37.0554L182.536 36.7776L183.369 32.6101L185.314 29.2761L188.092 25.1086L189.759 22.886L191.148 21.4968L193.649 19.2742L195.872 18.1628L197.261 17.0515L202.817 14.551L210.041 11.217L214.486 9.82788L224.21 8.16089Z" fill="#52D95B"/>
<path d="M239.769 10.6614H241.992L244.492 11.4949L244.214 12.3284L239.769 13.9954L235.324 15.1067H234.49L234.212 16.7737L230.323 19.2742L227.544 21.219L225.322 23.4417L220.876 26.7756L218.932 28.4426L217.542 30.1096L215.598 31.7766L213.653 33.9993L210.041 37.6111L207.818 40.3894L206.707 40.1116L206.429 39.0002L208.93 34.8328L211.152 32.0544L213.931 28.1648L216.987 24.8308H217.542V24.2751L219.765 22.3303L217.265 23.4417L214.764 25.9421L212.542 27.887L209.485 31.2209L206.707 33.9993L204.484 34.8328L201.706 37.3333L200.317 38.1667L200.039 37.8889L200.317 35.3884L203.651 30.1096L206.429 26.22L208.652 23.7195H209.208V23.1638L211.986 20.9412L214.486 18.7185L217.542 16.4958L222.266 14.2732L228.656 12.6062L235.879 11.217L239.769 10.6614Z" fill="#52D95B"/>
<path d="M481.483 277.936L484.817 278.491L493.152 280.436L505.654 282.937L526.214 286.826L537.327 288.771L555.942 290.716L560.665 291.55V292.661L557.887 292.939H545.94L535.938 292.383L524.825 290.994L511.767 289.049L487.873 284.604L481.205 283.215L480.927 282.937L481.205 279.325L481.483 277.936Z" fill="#52D95B"/>
<path d="M448.421 163.469H452.033L454.811 164.025L455.089 164.858L452.866 169.303L450.366 171.526L447.032 173.749L440.364 176.805L432.584 179.583L427.583 180.417L423.694 180.972L420.916 181.806H418.971L418.693 181.25L419.804 180.139L424.25 178.472L426.75 177.638L431.195 176.805L437.585 173.749L440.642 172.36V172.082L435.918 173.749L430.64 175.694L424.25 176.805H422.583L422.027 176.527L422.305 175.138L428.139 173.471L431.473 172.637L431.751 172.36L429.806 172.637L420.36 174.86L417.582 174.582L416.47 174.027V173.193L420.082 171.804L428.417 169.026L431.751 167.636L437.585 166.247L444.253 164.025L448.421 163.469Z" fill="#52D95B"/>
<path d="M253.938 18.9963H257.272L258.384 19.2742V19.8298L256.161 20.9412L254.494 21.4968L262.551 19.8298L266.441 18.9963L268.386 19.552L268.941 19.8298L268.664 20.9412L262.551 22.3303L257.828 23.4417L250.327 26.4978L246.159 28.7205L243.103 33.1658L239.769 37.3333L236.713 39.8337L234.49 42.0564L232.545 43.4456L231.156 44.0012H229.767L230.045 42.8899L231.99 40.3894L235.046 36.4998L237.269 33.9993L233.935 35.6663L227.267 40.1116L225.044 42.3342L223.099 44.5569L221.71 45.946L220.876 45.6682L221.432 44.0012L225.044 39.0002L228.378 34.5549L230.323 32.0544L233.935 28.7205L236.991 26.22L242.547 22.886L246.437 20.9412L249.493 19.8298L253.938 18.9963Z" fill="#52D95B"/>
<path d="M445.643 180.417H453.7L458.979 181.528V182.362L455.645 185.418L450.921 187.64L445.643 189.585L435.918 192.086L431.195 192.919L425.083 193.475H419.526L418.971 192.919L419.249 191.808L420.638 191.252L430.64 190.141H432.029L433.418 190.419L436.196 189.03L440.364 187.64L437.585 187.918L434.529 188.474L433.418 187.64V187.085L419.526 188.196L415.081 187.918V187.085L416.748 185.973L420.082 185.14L434.529 182.084L443.142 180.695L445.643 180.417Z" fill="#52D95B"/>
<path d="M527.047 184.584H532.048L535.938 185.696H543.995L549.83 185.418H558.998L566.222 186.807L567.055 187.085V187.918L562.61 188.752L550.107 190.141L543.439 190.697H537.883L536.216 190.419L534.271 190.697L518.435 190.141L497.875 189.863L492.596 189.307L492.041 188.196L492.318 187.918L503.709 187.363L508.988 186.807L513.711 186.529H522.046L521.769 185.418L523.436 184.862L527.047 184.584Z" fill="#52D95B"/>
<path d="M24.1714 252.097H28.8945L32.2285 252.931L34.729 254.876L35.0068 255.431L34.729 258.488L31.9507 259.321L30.2837 260.71L28.3389 260.432L27.2275 262.099L22.7822 263.766L19.7261 265.156L18.0591 265.989L16.1143 266.545L15.2808 268.212L11.9468 271.546L9.44629 274.602L6.39014 277.658L5.55664 278.214L2.50049 286.271L1.94482 287.66L6.9458 287.382L8.33496 286.549L9.44629 285.437L10.2798 285.715L10.002 287.104L6.9458 289.327L4.44531 289.605L1.94482 289.049L1.11133 288.493L1.38916 285.437L2.50049 280.158L3.05615 278.769L3.61182 274.046L5.55664 271.823L10.8354 266.545L14.1694 262.099L18.6147 256.265L20.5596 253.764L23.3379 252.375L24.1714 252.097Z" fill="#52D95B"/>
<path d="M452.866 289.605L455.367 290.16L473.426 295.717L478.705 296.828L479.538 297.384L478.705 305.163L477.871 305.719L464.535 307.386H462.312L460.646 304.608L456.2 295.995L453.7 291.272L452.866 290.16V289.605Z" fill="#52D95B"/>
<path d="M69.1802 269.045L71.4028 269.323L73.6255 270.99L76.126 273.213L78.0708 274.602V275.157L79.1821 275.713L79.7378 276.547V281.825L78.9043 285.993L75.2925 289.049L73.9033 289.883L70.0137 290.716H68.0688L63.6235 289.605L61.123 285.437V283.492L61.4009 282.937L62.79 283.492L64.457 284.604L65.8462 284.882L66.4019 283.492L70.0137 279.881L73.3477 278.491L71.125 278.769L68.9023 279.603H65.8462L65.0127 279.325L65.5684 277.936L66.6797 276.547L68.0688 275.435L68.3467 274.88L61.6787 275.713H58.3447V274.88L60.5674 274.046L64.1792 272.935L68.6245 269.323L69.1802 269.045Z" fill="#52D95B"/>
<path d="M403.412 175.694L408.413 175.971L414.525 176.805L414.803 177.361L413.414 179.583L410.08 182.084L403.968 184.862L396.466 187.085L391.465 187.64H382.297L382.853 186.529L385.075 185.418L390.354 183.751H391.743V183.195L389.798 182.917L388.131 182.639L383.13 182.362L381.463 181.806L381.186 181.25L382.575 178.75L384.242 177.638L398.689 175.971L403.412 175.694Z" fill="#52D95B"/>
<path d="M250.049 14.8289L253.661 15.1067V16.218L252.827 17.0515L248.104 17.885L241.158 18.9963L236.435 21.219H237.269L237.824 20.9412H239.491L239.769 21.7747L237.824 23.9973L235.602 25.9421L233.379 28.1648L231.156 30.1096L230.323 30.9431H229.767V31.4988L227.544 33.4436L224.488 36.4998L222.266 38.4446L218.654 41.7786L215.875 44.8347L214.764 45.1125L214.486 44.5569L216.153 41.5007L219.765 37.0554L223.655 32.8879L225.044 31.4988L227.544 28.7205V28.1648L225.322 30.1096L221.988 32.6101L218.932 35.1106L216.987 37.3333L214.208 40.1116L213.375 40.6672H211.152L211.43 39.5559L213.653 36.7776L216.153 33.9993L220.043 28.7205L222.266 26.22L227.544 22.6082L231.712 19.8298L236.157 17.6072L240.047 16.218L245.048 15.3845L250.049 14.8289Z" fill="#52D95B"/>
<path d="M392.021 190.697H399.8L406.746 191.252L412.581 192.364L412.858 193.475L411.747 195.698L410.08 197.642L407.58 199.031L401.745 200.976L397.578 202.088L396.188 202.365H391.743L386.187 201.254L385.631 200.698L387.02 199.865L391.743 198.476L393.41 197.92L392.854 197.365L389.243 196.531L383.408 195.42L382.853 195.142L382.575 192.919L383.964 191.53L386.464 190.974L392.021 190.697Z" fill="#52D95B"/>
<path d="M275.609 25.3865H279.499L284.778 26.4978L288.112 28.1648V28.7205L279.777 28.4426L275.332 29.2761V29.554L277.832 28.9983H283.389L283.111 29.8318L276.721 32.0544L272.831 34.2771L271.164 35.1106L269.219 37.0554L266.719 39.0002L265.33 39.5559L263.94 40.9451L260.051 42.3342L258.662 42.0564L259.773 40.9451L261.44 39.8337L263.385 37.6111L260.329 39.5559L256.161 42.0564H254.494L254.772 40.9451L257.55 38.7224L259.495 36.4998L261.996 34.5549L266.163 32.0544L268.941 30.6653L263.107 32.6101L258.106 34.8328L253.938 37.3333L250.882 39.5559L249.215 40.1116L248.66 38.4446L250.049 35.9441L251.994 33.9993L255.328 32.3323L263.94 28.9983L267.552 27.3313L274.22 25.6643L275.609 25.3865Z" fill="#52D95B"/>
<path d="M378.685 204.032L384.52 204.31L392.021 205.144L403.412 207.366L407.857 208.756L408.135 209.867L407.58 211.812L404.246 214.59L402.579 215.701L397.022 216.813L393.688 217.091H387.854L384.52 216.257L383.964 215.146L386.187 214.312L390.632 213.201L389.521 212.645L385.353 211.812L385.075 211.534V209.589L386.187 209.311L388.687 209.589V208.756L385.075 208.2L378.407 206.811L377.018 205.977L377.296 204.866L378.685 204.032Z" fill="#52D95B"/>
<path d="M403.412 161.524H409.247L413.692 162.358L413.414 163.747L412.303 165.136L406.19 169.303L401.745 171.248L397.022 172.915L387.02 174.582L383.686 174.027L383.13 173.471L383.408 172.082L384.52 171.248L393.132 168.748L394.521 168.47V167.914L393.41 168.192H383.686L382.297 167.636L382.019 166.247L384.242 165.414L391.743 163.747L403.412 161.524Z" fill="#52D95B"/>
<path d="M448.699 150.133H450.366L450.644 150.967L448.977 154.301L446.476 157.079L442.864 159.579L436.474 162.635L429.528 165.414L424.25 167.081L420.638 167.914H417.026L417.304 166.803L420.36 165.136L430.362 161.802L434.807 160.135L438.697 157.912L440.086 157.635V157.079L434.529 158.746L429.806 160.135L417.859 162.635H416.192L416.47 160.969L418.137 159.579L421.193 158.19L431.195 155.134L443.42 150.689L448.699 150.133Z" fill="#52D95B"/>
<path d="M274.22 141.798L275.054 142.076L274.22 144.576L271.442 149.855L269.219 153.189L265.607 157.912L263.107 160.969L260.884 163.191L258.939 166.247L255.883 169.859L255.05 170.97L257.828 169.859L261.718 168.192L265.052 164.58L267.274 162.635L270.331 159.302L273.109 155.69L275.887 151.8L278.388 147.91H279.221L278.666 150.133L275.054 155.968L272.553 159.857L269.219 164.302L265.607 168.47L263.663 170.415L261.162 172.36L259.773 173.749L257.272 175.416L255.05 176.805L252.827 177.361L251.994 176.805L252.549 175.694L254.494 174.86H255.05L255.605 173.749L256.995 171.526L255.605 172.637L252.827 173.471L250.882 174.86L248.938 175.694H247.548V174.304L246.437 173.193L246.715 172.637L249.771 171.526L250.882 170.693H253.105L253.661 169.303V168.192L251.716 167.914V166.803L255.05 164.025L257.828 162.08L260.329 159.579L262.273 157.357L265.052 154.301L267.83 150.689L270.608 146.799L273.665 142.354L274.22 141.798Z" fill="#52D95B"/>
<path d="M293.668 181.528L294.502 181.806V182.639L289.223 186.251L285.056 189.03L277.832 192.919L272.831 195.142L270.053 196.253H269.219V196.809L275.054 196.253L283.111 194.031L288.112 192.364L288.945 192.641L288.667 193.475L281.166 197.642L279.499 198.198V198.754L292.557 196.809L300.059 194.864H301.448L301.726 195.698L295.891 197.92L291.168 199.031L285.056 200.143L282 200.421L274.22 200.143L260.606 198.754L254.216 197.92L253.105 197.642L253.383 196.809L256.161 195.698L266.163 194.308L271.72 192.641L279.499 189.585L286.445 186.251L289.223 184.306L293.668 181.528Z" fill="#52D95B"/>
<path d="M269.219 135.964L270.053 136.241L268.386 141.242L264.774 147.633L260.329 154.023L257.55 157.635L255.05 160.969L252.271 164.025L250.327 166.247L248.66 168.47L246.993 170.97L245.048 172.637L243.937 172.36L243.659 171.804L239.769 171.526H235.046L235.602 170.137L237.546 168.192L242.825 164.302L247.826 160.691L251.438 157.635L255.883 153.745L258.384 150.689L261.44 147.077L265.33 141.52L268.941 136.241L269.219 135.964Z" fill="#52D95B"/>
<path d="M440.642 140.409H442.864L445.365 140.965V142.076L443.142 145.132L441.475 147.077L437.863 149.577L430.917 151.8L422.583 154.301L420.36 154.856H417.026L415.637 153.745V153.189L422.027 151.244L425.639 150.689L433.418 147.633L438.141 145.688H438.697V145.132L433.14 147.355L430.362 148.188L428.973 147.91V147.355L420.082 149.022L416.748 149.577L412.858 149.855L412.581 148.744L413.692 147.633L416.748 146.521L428.973 143.187L437.863 140.965L440.642 140.409Z" fill="#52D95B"/>
<path d="M484.261 257.098L488.429 257.654L525.936 264.6L531.493 265.711L532.048 265.989V267.656L530.659 267.934L524.547 267.656L507.321 265.711L488.151 263.211L483.983 262.377L483.428 261.822L483.983 257.376L484.261 257.098Z" fill="#52D95B"/>
<path d="M417.304 114.571H422.027L431.473 116.238L432.029 116.793L430.362 119.016L428.695 119.849L423.416 120.683L414.248 121.794L408.135 122.906L400.356 124.017L397.578 124.295L398.133 122.906L399.245 122.072L406.19 120.405L417.304 118.738L414.525 118.46H408.691L401.745 119.016L397.022 119.849H393.966L394.244 119.016L396.466 117.905L402.579 116.238L411.191 115.126L417.304 114.571Z" fill="#52D95B"/>
<path d="M400.912 148.744H405.079L408.135 149.3L408.413 150.133L407.58 151.8L403.69 155.412L400.356 157.635L395.633 159.579L388.687 161.246L385.075 160.691L384.797 159.857L385.631 158.468L388.409 157.079L392.577 155.412L387.02 155.134L383.408 154.578L382.853 154.301L383.13 152.911L395.633 149.577L400.912 148.744Z" fill="#52D95B"/>
<path d="M486.484 237.65L490.096 237.928L498.708 238.761L519.824 240.151L528.437 240.984L530.937 241.54L531.493 242.373L531.215 242.651L526.492 243.485L525.38 243.762H522.324L510.1 242.929L505.376 243.207L501.765 243.485H492.318L486.484 243.207L485.65 242.929L485.928 239.595L486.484 237.65Z" fill="#52D95B"/>
<path d="M390.91 95.4001H398.689L407.857 97.0671L409.247 97.6228V98.4563L413.414 99.2898L414.803 100.679L415.359 102.624L414.803 102.902L406.19 103.457H398.411L393.966 102.902L394.521 102.068L395.633 101.512L395.355 100.957L392.299 100.401H388.687L386.187 100.957L384.52 99.8455L384.242 99.2898L385.075 98.1785L386.464 97.9006H393.966V97.345L384.52 97.0671L383.964 96.7893L384.242 95.9558L385.909 95.678L390.91 95.4001Z" fill="#52D95B"/>
<path d="M296.725 214.868L301.726 215.424L304.782 216.535L306.727 218.202V218.758L299.225 217.091H298.392L302.003 219.035L304.782 221.258L308.394 224.036V224.87L306.171 224.592L301.726 222.369L299.225 221.258L295.058 220.425L297.836 222.369L301.448 224.87L304.782 228.204V228.76L303.115 229.037L300.336 227.926L293.668 224.87L285.333 222.369L282.555 220.702L281.444 219.591L281.722 218.758L286.167 217.646L291.446 216.813H295.891L296.447 215.146L296.725 214.868Z" fill="#52D95B"/>
<path d="M127.247 137.075L131.415 137.908L132.248 138.742V140.965L131.692 144.299L130.025 147.077L126.969 150.411L124.469 152.078L118.912 154.023L116.134 154.578L113.633 154.301L108.077 153.189L105.576 150.967L104.187 149.022V148.466L105.854 148.744L109.188 150.133L113.633 150.967L111.133 148.744L110.577 146.799L113.078 147.077L117.523 148.188H119.746L120.023 149.022H120.301L122.246 148.466L124.469 146.521L125.302 144.854L126.136 141.242L126.691 137.353L127.247 137.075Z" fill="#52D95B"/>
<path d="M403.412 105.958L404.801 106.236H405.913L406.19 105.958H410.636L420.082 107.625L424.25 108.458V109.292L423.694 110.125L420.916 110.681L420.638 111.237L418.971 111.514H406.468L406.19 111.792L397.578 112.348L390.91 112.07L387.298 111.792L387.02 111.514V110.125L387.854 109.57L393.41 108.458H396.744L397.3 107.347L402.023 106.236L403.412 105.958Z" fill="#52D95B"/>
<path d="M455.089 192.086L456.2 192.364L455.367 194.586L452.866 196.809L448.977 197.92L440.086 199.865L435.363 200.421L430.64 200.698H415.081L415.637 199.309L416.47 198.198L423.416 196.809L437.03 195.42L449.532 193.753H452.311L455.089 192.086Z" fill="#52D95B"/>
<path d="M435.085 132.352H437.585L440.364 132.907L440.642 133.741L439.252 135.13L437.863 136.797L433.974 138.742L427.028 140.131L420.082 141.798L413.136 143.743H411.469L410.636 142.632L410.914 141.798L414.248 139.853L419.526 138.464L422.583 138.186L422.305 137.631L417.582 136.241L417.026 135.408L420.082 134.297L423.694 133.463L431.751 132.63L435.085 132.352Z" fill="#52D95B"/>
<path d="M268.664 216.257L271.164 216.535L273.387 217.368L277.276 220.702L281.444 224.314L282.833 225.426L283.111 226.815L276.443 228.76H275.887L276.165 227.648L277.554 225.703V224.87L276.721 224.592L276.165 226.259L275.054 227.926L273.942 227.37L272.831 225.148L272.275 223.203L271.72 222.925L272.831 225.703V227.37L271.442 229.315L270.053 229.037L267.552 224.592L264.774 223.203L262.551 222.369L261.718 221.536V219.591L262.829 218.202L268.664 216.257Z" fill="#52D95B"/>
<path d="M16.1143 272.657L17.2256 272.935L19.1704 275.157L20.5596 278.769L21.3931 282.937V284.604L20.2817 287.382L18.6147 289.883L18.3369 290.716H22.2266L24.1714 289.605L25.0049 288.771H25.8384L25.5605 290.16L23.3379 292.105L21.9487 292.661H17.7812L15.8364 290.994L15.5586 289.327L15.8364 287.938H13.6138L14.1694 284.048L14.4473 283.215L13.0581 283.492H10.5576L10.002 282.937V280.714L10.8354 278.491L13.3359 275.713L15.2808 273.49L16.1143 272.657Z" fill="#52D95B"/>
<path d="M141.417 129.851H151.418L153.363 130.407L152.53 131.24L149.474 131.518L130.581 132.352L120.579 134.297L113.078 135.964L104.465 139.298L103.354 139.575L103.076 138.464L103.631 137.075V135.13L105.021 134.019L109.188 132.63L114.467 131.24L120.857 130.407L124.191 130.129L141.417 129.851Z" fill="#52D95B"/>
<path d="M387.854 84.8425H389.798L392.021 85.9539V86.7874H394.244L395.355 87.343L395.911 88.1765L399.245 89.01L402.301 90.9548L403.134 92.0662V92.8997L402.023 93.1775H383.13L380.63 92.8997V91.7883L381.463 91.5105L379.519 91.7883L377.296 92.344H375.629V91.2327L377.296 90.3992L380.074 89.5657L386.187 87.6208L382.019 88.1765H379.241L379.519 87.343L383.686 85.9539L387.854 84.8425Z" fill="#52D95B"/>
<path d="M287.278 172.36L288.112 172.637L287.834 174.304L284.5 178.194L283.111 179.583L280.888 181.25L278.666 183.195L273.665 186.807L269.497 189.585L262.551 192.641L254.772 195.698L249.771 196.809H245.326L240.88 195.975L239.213 195.142L239.491 194.586L247.826 193.197L255.05 191.808L263.107 189.03L269.219 186.251L275.887 182.362L282.277 178.472L284.222 176.249L285.889 174.304L287.278 172.36Z" fill="#52D95B"/>
<path d="M234.212 205.144L235.602 205.699L236.157 206.533L234.768 207.922L230.878 210.978L226.433 214.59L222.821 217.368L215.042 223.481L210.875 226.815L206.151 230.427L201.984 233.76L198.372 235.983L193.927 238.206L192.815 237.928L191.982 237.094L192.26 236.261L197.539 232.927L203.373 229.037L208.096 225.703L212.542 222.092L216.153 219.313L220.043 216.257L224.488 212.645L228.1 209.867L233.101 205.977L234.212 205.144Z" fill="#52D95B"/>
<path d="M464.257 246.819L466.758 247.096L480.372 249.597L484.539 250.43L484.817 251.82L484.261 256.821L480.927 256.543L470.37 254.32L463.979 252.653L463.702 252.375V249.875L464.257 246.819Z" fill="#52D95B"/>
<path d="M287 31.4988H292.557L296.169 32.0544L297.002 32.6101L296.725 33.4436L294.502 33.9993L289.779 34.5549L294.502 34.8328H301.17L303.393 35.3884L303.67 36.2219L301.726 36.7776L298.392 37.0554H289.779L282.555 35.9441H279.221L278.11 36.4998L277.276 36.2219L276.165 37.6111L272.275 39.0002L270.886 38.4446L269.775 38.7224L267.83 40.6672H266.441L266.997 39.2781L269.219 37.3333L272.275 35.1106L275.609 33.7214L279.777 32.3323L283.111 31.7766L287 31.4988Z" fill="#52D95B"/>
<path d="M270.331 22.3303H272.553L274.498 22.6082L274.22 23.7195L271.442 25.1086L264.774 26.7756H263.107L262.551 26.4978L262.273 27.6091L256.161 30.1096L251.16 32.8879L244.492 37.3333L243.381 38.1667L240.88 38.4446L240.047 37.6111L242.547 34.8328L245.326 32.0544L250.882 28.7205L255.883 26.4978L261.996 24.2751L268.941 22.6082L270.331 22.3303Z" fill="#52D95B"/>
<path d="M493.43 90.3992L493.985 90.677L493.708 91.7883L488.984 94.5667L485.928 96.2336L482.872 98.4563L475.926 102.346L464.257 108.18L460.923 110.125L453.422 112.626L445.087 114.571H443.42V113.737L444.531 112.626L454.255 109.292L460.09 106.791L467.313 104.569L472.037 102.346L476.76 99.5676L483.983 95.678L488.429 92.8997L493.43 90.3992Z" fill="#52D95B"/>
<path d="M542.05 143.187L543.439 143.465L543.162 144.576L535.66 147.91L530.937 150.133L528.159 152.356L522.324 154.023L517.879 155.134L508.155 156.523H506.21L505.932 155.134L515.378 152.356L519.824 151.522L520.379 150.133L533.715 145.966L542.05 143.187Z" fill="#52D95B"/>
<path d="M264.218 130.407H265.052L264.774 132.907L260.884 140.687L257.828 145.688L254.772 150.133L251.438 154.023L250.327 155.412H249.771L249.215 156.523L246.159 159.302L244.77 160.969L243.937 161.246V159.579L245.048 157.912L245.881 157.079L246.993 152.078L248.104 150.689L250.327 149.3L252.827 146.521L255.05 143.743L258.939 138.742L263.107 132.63L264.218 130.407Z" fill="#52D95B"/>
<path d="M465.091 239.873L472.037 241.262L480.649 242.929L480.927 242.651L485.373 242.929L485.65 244.04L485.095 248.486L482.594 248.208L464.813 244.596L464.535 244.318L464.813 240.151L465.091 239.873Z" fill="#52D95B"/>
<path d="M21.3931 267.378L23.8936 267.934L25.0049 269.323L26.1162 271.268L26.6719 272.935L27.5054 275.157L27.7832 277.38V280.436L26.6719 282.103L24.1714 284.326L23.3379 284.604L23.0601 284.326L21.9487 277.102L18.8926 273.49L17.7812 271.546L18.3369 269.879L20.0039 267.934L21.3931 267.378Z" fill="#52D95B"/>
<path d="M258.384 129.573H258.939L258.662 131.518L255.05 138.742L250.604 145.41L245.048 152.634L244.214 153.467L243.659 155.69L240.88 158.746L239.213 159.024L237.824 160.413H237.269L236.991 159.302L238.658 157.079L240.603 154.856L241.714 152.634L244.77 148.188L248.382 143.187L251.716 138.464L255.328 133.463L257.828 130.129L258.384 129.573Z" fill="#52D95B"/>
<path d="M199.206 111.237H201.428L202.54 112.348L200.039 113.181L191.426 115.96L183.369 117.905L174.479 119.572L164.477 120.683H162.532L161.976 119.572L165.31 118.738L172.812 117.627L179.479 116.515L189.204 114.015L191.704 113.459L198.094 111.514L199.206 111.237Z" fill="#52D95B"/>
<path d="M429.528 127.351H435.641L436.752 127.906V128.74L434.807 130.129L427.306 131.796L420.916 133.185L413.692 135.408L412.303 135.686H410.358L409.802 135.408L410.08 134.574L413.414 133.185L415.081 132.352H416.748L418.137 131.24L422.583 129.018L425.639 127.629L429.528 127.351Z" fill="#52D95B"/>
<path d="M84.1831 167.081H94.1851L101.964 168.47L104.743 169.303L105.021 169.859L94.4629 169.581H88.6284L78.9043 170.415L69.7358 172.082L68.6245 171.804L68.9023 170.693L74.7368 168.47L79.46 167.636L84.1831 167.081Z" fill="#52D95B"/>
<path d="M188.092 12.884L188.926 13.1619L188.37 14.551L184.48 17.885L182.258 19.8298L179.479 22.6082L176.146 27.0535L173.089 31.4988L170.589 34.2771L170.033 33.9993L170.589 30.3875L173.923 24.8308L176.146 21.7747L179.202 18.4407L180.591 16.7737L184.48 14.2732L188.092 12.884Z" fill="#52D95B"/>
<path d="M525.103 166.525H533.715L535.382 167.081L534.827 167.914L527.603 169.303L520.379 170.137L517.045 170.415L505.376 170.693L505.099 169.303L507.043 168.47L514.267 167.636L522.602 166.803L525.103 166.525Z" fill="#52D95B"/>
<path d="M479.816 294.606L482.039 294.884L491.485 296.551L506.488 299.051L506.766 299.885L506.21 300.162H498.431L490.651 299.329L480.372 297.384L479.538 297.106L479.816 294.606Z" fill="#52D95B"/>
<path d="M217.82 111.237H220.043L219.487 112.348L212.542 115.404L198.928 120.405L190.593 123.461L185.87 124.85L183.369 125.406H181.98L181.424 124.295L186.147 122.906L196.705 119.572L205.04 116.515L211.43 113.737L216.987 111.514L217.82 111.237Z" fill="#52D95B"/>
<path d="M545.94 121.239H546.773L547.885 123.739V125.962L546.496 127.073L538.994 129.296L536.771 129.851H534.827V128.74L537.327 126.517L545.106 121.794L545.94 121.239Z" fill="#52D95B"/>
<path d="M289.779 77.3411H291.724V78.4524L288.667 81.2307L285.611 83.7312L281.166 87.8987L278.11 91.5105L275.054 95.4001L271.998 100.123H271.442V98.4563L273.665 94.5667L276.443 90.9548L278.943 87.8987L282.277 84.2869L285.333 80.9529L287.556 78.7302L289.779 77.3411Z" fill="#52D95B"/>
<path d="M424.805 122.628L430.084 123.183L434.251 124.017L436.196 124.85L436.474 125.962L436.196 126.24L427.861 126.795H425.361L421.193 124.85L421.471 124.017L423.416 122.906L424.805 122.628Z" fill="#52D95B"/>
<path d="M551.219 147.355L552.886 147.633L555.942 149.3L557.053 150.689L555.942 151.244L547.885 152.356L545.384 152.634H542.05L543.162 151.522L547.885 149.3L551.219 147.355Z" fill="#52D95B"/>
<path d="M522.324 196.253L526.77 197.087V197.92L523.991 198.754H510.655L506.21 198.198L505.654 197.92L505.932 197.087L508.988 196.809L522.324 196.253Z" fill="#52D95B"/>
<path d="M93.6294 145.966L95.0186 146.243L95.5742 151.8L97.2412 155.968L98.9082 158.746L98.0747 159.024L95.8521 157.635L93.9072 155.412L92.5181 152.634L92.2402 151.522V147.91L93.3516 146.243L93.6294 145.966Z" fill="#52D95B"/>
<path d="M248.104 98.7341L248.938 99.012L248.66 99.8455L230.045 106.791L225.877 108.458L224.766 108.18L225.044 107.069L231.434 104.291L241.436 100.957L248.104 98.7341Z" fill="#52D95B"/>
<path d="M221.432 103.179L221.988 103.735L222.266 104.846L218.376 106.791L212.819 109.292L210.875 109.57L210.597 108.458L209.485 107.903L209.763 107.069L216.431 104.846L221.432 103.179Z" fill="#52D95B"/>
<path d="M303.948 38.4446H308.116L310.616 39.0002L311.45 39.5559V40.3894L310.616 40.6672L303.115 41.2229L298.947 41.7786H296.169V41.2229L298.114 40.3894L303.948 38.4446Z" fill="#52D95B"/>
<path d="M248.104 93.4553H249.215V94.5667L241.158 97.6228L233.657 100.123H232.823L233.101 99.012L240.325 95.678L248.104 93.4553Z" fill="#52D95B"/>
<path d="M499.82 245.707H503.432L506.21 246.819L505.932 247.93L504.265 248.486H497.875L495.375 247.652L495.097 247.096L496.208 245.985L499.82 245.707Z" fill="#52D95B"/>
<path d="M149.196 124.017H162.254L163.365 124.573L162.81 125.128L161.143 125.406L155.586 125.684H148.362L148.64 124.573L149.196 124.017Z" fill="#52D95B"/>
<path d="M59.1782 288.216H59.7339L60.5674 289.883L61.9565 291.827L64.457 292.939L68.3467 294.05L67.791 295.161L66.124 295.717L61.6787 294.606L59.7339 292.105L59.1782 290.16V288.216Z" fill="#52D95B"/>
<path d="M121.968 257.654L125.024 257.932V258.765L123.913 260.155L121.69 260.71H118.356L116.134 260.432L115.022 259.043L115.3 258.765L118.912 258.21L121.968 257.654Z" fill="#52D95B"/>
<path d="M232.268 163.469L233.379 163.747L233.101 164.858L232.823 165.692L232.545 166.803L229.767 169.026H228.378L227.822 167.914L226.155 168.47L225.877 167.359L227.267 166.247L231.434 164.025L232.268 163.469Z" fill="#52D95B"/>
<path d="M297.002 65.3943L298.114 65.6721V66.5056L295.058 67.6169L293.391 69.0061L288.39 70.6731H287.278L287.834 69.5618L289.779 67.6169L292.557 66.5056L297.002 65.3943Z" fill="#52D95B"/>
<path d="M120.857 136.797H122.802L124.191 137.353L124.469 137.631V140.409L124.191 140.965H121.968L120.023 140.409V138.464L120.579 137.075L120.857 136.797Z" fill="#52D95B"/>
<path d="M253.383 257.932L255.328 258.21L255.05 259.599L253.938 261.822H258.939L258.662 262.933L257.55 263.489H252.549L252.827 259.877L253.383 257.932Z" fill="#52D95B"/>
<path d="M231.156 99.012L232.268 99.5676L232.545 100.401L228.656 102.346L223.933 104.291H223.099V102.902L226.989 100.957L231.156 99.012Z" fill="#52D95B"/>
<path d="M277.276 70.1174L278.666 70.3953V72.3401L277.554 73.1736L271.164 76.2297L269.775 76.5076V75.6741L274.776 72.8958L275.054 72.3401V71.2288L277.276 70.1174Z" fill="#52D95B"/>
<path d="M477.038 80.1194L477.871 80.3972L477.593 83.4534L472.592 86.5095L471.759 86.2317L472.037 85.1204L474.537 82.342L477.038 80.1194Z" fill="#52D95B"/>
<path d="M485.095 248.763L488.984 249.319L492.596 250.153V251.264L490.929 251.542L486.206 250.986L484.817 250.43L485.095 248.763Z" fill="#52D95B"/>
<path d="M243.381 38.7224H244.77L245.048 39.5559L243.381 41.5007L240.047 42.8899L238.658 43.7234H238.102L238.658 42.3342L239.491 41.2229L242.547 39.5559L243.381 38.7224Z" fill="#52D95B"/>
<path d="M35.2847 266.545H37.2295L37.5073 267.378L35.5625 270.434L34.1733 270.156L32.7842 268.767L34.4512 266.823L35.2847 266.545Z" fill="#52D95B"/>
<path d="M349.513 230.149L350.902 230.427L354.792 232.094L356.181 233.76L355.903 234.316H354.236L352.013 233.205L349.513 230.704V230.149Z" fill="#52D95B"/>
<path d="M222.266 127.351H222.821L222.543 128.462L220.599 130.407L217.542 132.63L216.431 133.463L215.32 133.185L215.875 132.074L220.321 128.74L222.266 127.351Z" fill="#52D95B"/>
<path d="M222.266 171.804L223.377 172.082V172.637L218.932 175.138L215.875 176.805L216.153 175.138L221.154 172.36L222.266 171.804Z" fill="#52D95B"/>
<path d="M384.242 219.313H387.576L387.854 219.591V220.98L387.298 221.258L384.242 219.591V219.313Z" fill="#52D95B"/>
<path d="M390.354 236.261H392.021L392.299 236.817L390.354 236.539V236.261Z" fill="#52D95B"/>
</svg>
